<svg id="Layer_3" enable-background="new 0 0 64 64" height="512" viewBox="0 0 64 64" width="512" xmlns="http://www.w3.org/2000/svg"><path d="m42 20h20v42h-20z" fill="#c69c6d"/><path d="m22 20h20v42h-20z" fill="#634e37"/><path d="m2 20h20v42h-20z" fill="#c69c6d"/><path d="m46 62v-14h12v14" fill="#adadad"/><path d="m46 48h9v14h-9z" fill="#e6e6e6"/><path d="m26 62v-14h12v14" fill="#adadad"/><path d="m26 48h9v14h-9z" fill="#e6e6e6"/><path d="m6 62v-14h12v14" fill="#adadad"/><path d="m6 48h9v14h-9z" fill="#e6e6e6"/><path d="m46 40h12v4h-12z" fill="#adadad"/><path d="m46 40h9v4h-9z" fill="#e6e6e6"/><path d="m26 40h12v4h-12z" fill="#adadad"/><path d="m26 40h9v4h-9z" fill="#e6e6e6"/><path d="m6 40h12v4h-12z" fill="#adadad"/><path d="m6 40h9v4h-9z" fill="#e6e6e6"/><path d="m46 24h12v12h-12z" fill="#80afbe"/><path d="m46 24h9v12h-9z" fill="#aae9fd"/><path d="m26 24h12v12h-12z" fill="#80afbe"/><path d="m26 24h9v12h-9z" fill="#aae9fd"/><path d="m6 24h12v12h-12z" fill="#80afbe"/><path d="m6 24h9v12h-9z" fill="#aae9fd"/><path d="m16 2h32v14h-32z" fill="#5f9747"/><path d="m16 2h29v14h-29z" fill="#7ec95f"/><path d="m18 37h-12c-.552 0-1-.447-1-1v-12c0-.552.448-1 1-1h12c.552 0 1 .448 1 1v12c0 .553-.448 1-1 1zm-11-2h10v-10h-10z"/><path d="m19 62h-2v-13h-10v13h-2v-14c0-.553.448-1 1-1h12c.552 0 1 .447 1 1z"/><path d="m8 53h2v4h-2z"/><path d="m18 45h-12c-.552 0-1-.447-1-1v-4c0-.553.448-1 1-1h12c.552 0 1 .447 1 1v4c0 .553-.448 1-1 1zm-11-2h10v-2h-10z"/><path d="m38 37h-12c-.552 0-1-.447-1-1v-12c0-.552.448-1 1-1h12c.552 0 1 .448 1 1v12c0 .553-.448 1-1 1zm-11-2h10v-10h-10z"/><path d="m39 62h-2v-13h-10v13h-2v-14c0-.553.448-1 1-1h12c.552 0 1 .447 1 1z"/><path d="m28 53h2v4h-2z"/><path d="m38 45h-12c-.552 0-1-.447-1-1v-4c0-.553.448-1 1-1h12c.552 0 1 .447 1 1v4c0 .553-.448 1-1 1zm-11-2h10v-2h-10z"/><path d="m58 37h-12c-.552 0-1-.447-1-1v-12c0-.552.448-1 1-1h12c.552 0 1 .448 1 1v12c0 .553-.448 1-1 1zm-11-2h10v-10h-10z"/><path d="m59 62h-2v-13h-10v13h-2v-14c0-.553.448-1 1-1h12c.552 0 1 .447 1 1z"/><path d="m48 53h2v4h-2z"/><path d="m58 45h-12c-.552 0-1-.447-1-1v-4c0-.553.448-1 1-1h12c.552 0 1 .447 1 1v4c0 .553-.448 1-1 1zm-11-2h10v-2h-10z"/><path d="m48 17h-32c-.552 0-1-.448-1-1v-14c0-.552.448-1 1-1h32c.552 0 1 .448 1 1v14c0 .552-.448 1-1 1zm-31-2h30v-12h-30z"/><path d="m27 13h-2v-5c0-.551-.449-1-1-1s-1 .449-1 1v5h-2v-5c0-1.654 1.346-3 3-3s3 1.346 3 3z"/><path d="m29 5h6v2h-6z"/><path d="m31 6h2v7h-2z"/><path d="m43 13h-2v-2.764l-.105.211c-.339.678-1.45.678-1.789 0l-.106-.211v2.764h-2v-7c0-.464.319-.867.77-.973.456-.106.917.111 1.125.526l1.105 2.211 1.105-2.211c.208-.415.669-.633 1.125-.526.451.106.77.509.77.973z"/><path d="m22 9h4v2h-4z"/><path d="m19 16h2v4h-2z"/><path d="m43 16h2v4h-2z"/><path d="m62 63h-60c-.552 0-1-.447-1-1v-42c0-.552.448-1 1-1h60c.552 0 1 .448 1 1v42c0 .553-.448 1-1 1zm-59-2h58v-40h-58z"/><path d="m21 20h2v42h-2z"/><path d="m41 20h2v42h-2z"/></svg>